<svg xmlns="http://www.w3.org/2000/svg" width="1700" height="1050" viewBox="0 0 1700 1050">
<rect width="1700" height="1050" fill="white"/>
<style>text{font-family:Arial,sans-serif;fill:#202531}.title{font-size:40px;font-weight:700}.sub{font-size:26px;font-weight:700}.label{font-size:25px}.small{font-size:20px}.bold{font-weight:700}</style>
<text x="60" y="75" class="title">Four complete CFD lattices are estimable but numerically unresolved</text>
<text x="60" y="130" class="sub">Gate 1: PASS for all four contrasts | Gate 2 threshold: ratio &gt; 3</text>
<line x1="510.0" y1="200.0" x2="510.0" y2="760.0" stroke="#d8dde5" stroke-width="2"/>
<text x="503.0" y="798.0" class="label">0</text>
<line x1="815.8823529411765" y1="200.0" x2="815.8823529411765" y2="760.0" stroke="#d8dde5" stroke-width="2"/>
<text x="808.8823529411765" y="798.0" class="label">1</text>
<line x1="1121.764705882353" y1="200.0" x2="1121.764705882353" y2="760.0" stroke="#d8dde5" stroke-width="2"/>
<text x="1114.764705882353" y="798.0" class="label">2</text>
<line x1="1427.6470588235293" y1="200.0" x2="1427.6470588235293" y2="760.0" stroke="#d8dde5" stroke-width="2"/>
<text x="1420.6470588235293" y="798.0" class="label">3</text>
<line x1="1427.6470588235293" y1="190.0" x2="1427.6470588235293" y2="760.0" stroke="#c44e52" stroke-width="6"/>
<text x="1347.6470588235293" y="170.0" class="label bold" style="fill:#c44e52">threshold = 3</text>
<text x="60" y="243.0" class="label bold">alph05-10071-2024</text>
<text x="60" y="276.0" class="small" style="fill:#596273">contrast 0.0057742 | floor 0.0031035</text>
<rect x="510.0" y="215.0" width="569.2470588235294" height="64" rx="14" fill="#4c78a8"/>
<text x="1097.2470588235294" y="256.0" class="label bold">1.861</text>
<text x="1425.0" y="254.0" class="small bold" style="fill:#a13f48">UNRESOLVED</text>
<text x="60" y="361.0" class="label bold">alph15-10929-3036</text>
<text x="60" y="394.0" class="small" style="fill:#596273">contrast 0.0065753 | floor 0.0033278</text>
<rect x="510.0" y="333.0" width="604.4235294117648" height="64" rx="14" fill="#4c78a8"/>
<text x="1132.4235294117648" y="374.0" class="label bold">1.976</text>
<text x="1425.0" y="372.0" class="small bold" style="fill:#a13f48">UNRESOLVED</text>
<text x="60" y="479.0" class="label bold">alph15-13929-2024</text>
<text x="60" y="512.0" class="small" style="fill:#596273">contrast 0.0062830 | floor 0.0022779</text>
<rect x="510.0" y="451.0" width="843.6235294117646" height="64" rx="14" fill="#7a5dc7"/>
<text x="1371.6235294117646" y="492.0" class="label bold">2.758</text>
<text x="1425.0" y="490.0" class="small bold" style="fill:#a13f48">UNRESOLVED</text>
<text x="60" y="597.0" class="label bold">alph15-7929-2024</text>
<text x="60" y="630.0" class="small" style="fill:#596273">contrast 0.0089263 | floor 0.0033618</text>
<rect x="510.0" y="569.0" width="812.1176470588234" height="64" rx="14" fill="#7a5dc7"/>
<text x="1340.1176470588234" y="610.0" class="label bold">2.655</text>
<text x="1425.0" y="608.0" class="small bold" style="fill:#a13f48">UNRESOLVED</text>
<line x1="60" y1="810" x2="1640" y2="810" stroke="#aeb6c2" stroke-width="3"/>
<text x="60" y="865" class="sub">Pooled checks</text>
<text x="60" y="915" class="small">Pooled archived floor</text>
<polygon points="420,900 433,887 446,900 433,913" fill="#4c78a8"/>
<text x="462" y="907" class="label bold">ratio 2.232 &lt; 3</text>
<text x="60" y="970" class="small">Pooled conservative floor</text>
<polygon points="950,955 963,942 976,955 963,968" fill="#7a5dc7"/>
<text x="992" y="962" class="label bold">ratio 1.914 &lt; 3</text>
<text x="1080" y="905" class="small bold" style="fill:#596273">Below threshold means insufficient audited evidence,</text>
<text x="1080" y="935" class="small bold" style="fill:#596273">not a zero physical interaction.</text>
</svg>